<svg height="480pt" viewBox="-24 0 480 480" width="480pt" xmlns="http://www.w3.org/2000/svg"><path d="m344.039062 72c0-35.347656-28.652343-64-64-64h-176c-35.34375 0-64 28.652344-64 64v228h304zm0 0" fill="#ffb531"/><path d="m344.039062 77.335938-222.664062 222.664062h222.664062zm0 0" fill="#ffa912"/><path d="m40.039062 300v108c0 35.347656 28.65625 64 64 64h176c35.347657 0 64-28.652344 64-64v-108zm0 0" fill="#48add9"/><path d="m152.039062 472h128c35.347657 0 64-28.652344 64-64v-108h-20zm0 0" fill="#43a1c9"/><path d="m104.039062 40h176c17.675782 0 32 14.328125 32 32v256c0 17.671875-14.324218 32-32 32h-176c-17.671874 0-32-14.328125-32-32v-256c0-17.671875 14.328126-32 32-32zm0 0" fill="#e94f4f"/><path d="m40.039062 304v24c0 35.347656 28.65625 64 64 64h176c35.347657 0 64-28.652344 64-64v-56c0 17.671875-14.324218 32-32 32zm0 0" fill="#60d1e0"/><path d="m72.039062 304v24c0 17.671875 14.328126 32 32 32h176c17.675782 0 32-14.328125 32-32v-24" fill="#3fb7c7"/><path d="m312.039062 256h-80v-118.3125c.003907-32.398438 9.589844-64.074219 27.5625-91.03125 2.773438-4.160156 7.441407-6.65625 12.4375-6.65625 5 0 9.667969 2.496094 12.441407 6.65625 17.96875 26.957031 27.558593 58.632812 27.558593 91.03125zm0 0" fill="#e0e0de"/><path d="m272.039062 112c-8.835937 0-16-7.164062-16-16s7.164063-16 16-16c8.835938 0 16 7.164062 16 16s-7.164062 16-16 16zm0-16" fill="#a3a3a1"/><path d="m272.136719 154.769531c-6.296875-.003906-12.554688-.988281-18.542969-2.921875l4.894531-15.199218c17.125 5.574218 35.914063.125 47.398438-13.746094l12.304687 10.257812c-11.375 13.691406-28.253906 21.613282-46.054687 21.609375zm0 0" fill="#c7c7c5"/><path d="m232.039062 256h-80v-118.3125c.003907-32.398438 9.589844-64.074219 27.5625-91.03125 2.773438-4.160156 7.441407-6.65625 12.4375-6.65625 5 0 9.667969 2.496094 12.441407 6.65625 17.96875 26.957031 27.558593 58.632812 27.558593 91.03125zm0 0" fill="#c7c7c5"/><path d="m192.039062 112c-8.835937 0-16-7.164062-16-16s7.164063-16 16-16c8.835938 0 16 7.164062 16 16s-7.164062 16-16 16zm0-16" fill="#a3a3a1"/><path d="m192.136719 154.769531c-6.296875-.003906-12.554688-.988281-18.542969-2.921875l4.894531-15.199218c17.125 5.574218 35.914063.125 47.398438-13.746094l12.304687 10.257812c-11.375 13.691406-28.253906 21.613282-46.054687 21.609375zm0 0" fill="#a3a3a1"/><path d="m152.039062 256h-80v-118.3125c.003907-32.398438 9.589844-64.074219 27.5625-91.03125 2.773438-4.160156 7.441407-6.65625 12.4375-6.65625 5 0 9.667969 2.496094 12.441407 6.65625 17.96875 26.957031 27.558593 58.632812 27.558593 91.03125zm0 0" fill="#e0e0de"/><path d="m112.039062 112c-8.835937 0-16-7.164062-16-16s7.164063-16 16-16c8.835938 0 16 7.164062 16 16s-7.164062 16-16 16zm0-16" fill="#a3a3a1"/><path d="m112.136719 154.769531c-6.296875-.003906-12.554688-.988281-18.542969-2.921875l4.894531-15.199218c17.125 5.574218 35.914063.125 47.398438-13.746094l12.304687 10.257812c-11.375 13.691406-28.253906 21.613282-46.054687 21.609375zm0 0" fill="#c7c7c5"/><path d="m312.039062 304v16c17.675782 0 32-14.328125 32-32-.03125-2.703125-.414062-5.394531-1.136718-8-3.609375 14.101562-16.304688 23.972656-30.863282 24zm0 0" fill="#5ac6d4"/><path d="m40.039062 304h32v16.007812h-32zm0 0" fill="#5ac6d4"/><path d="m72.039062 304h240v16.007812h-240zm0 0" fill="#4eabb8"/><path d="m72.039062 208h80v32h-80zm0 0" fill="#d6d6d4"/><path d="m104.039062 176h16v80h-16zm0 0" fill="#c7c7c5"/><path d="m232.039062 208h80v32h-80zm0 0" fill="#d6d6d4"/><path d="m152.039062 208h80v32h-80zm0 0" fill="#bfbfbd"/><path d="m264.039062 176h16v80h-16zm0 0" fill="#c7c7c5"/><path d="m184.039062 176h16v80h-16zm0 0" fill="#a3a3a1"/><path d="m40.039062 240h272c17.675782 0 32 14.328125 32 32s-14.324218 32-32 32h-272c-17.671874 0-32-14.328125-32-32s14.328126-32 32-32zm0 0" fill="#ffb531"/><path d="m40.039062 304h272c17.675782 0 32-14.328125 32-32h-336c0 17.671875 14.328126 32 32 32zm0 0" fill="#ffa912"/><path d="m344.039062 272c0 17.671875-14.324218 32-32 32-17.671874 0-32-14.328125-32-32s14.328126-32 32-32c17.675782 0 32 14.328125 32 32zm0 0" fill="#e94f4f"/><path d="m400.039062 328c-17.671874 0-32-14.328125-32-32v-16h-56v-16h64c4.417969 0 8 3.582031 8 8v24c0 8.835938 7.164063 16 16 16 8.835938 0 16-7.164062 16-16v-56c0-8.835938-7.164062-16-16-16-8.835937 0-16 7.164062-16 16v8h-16v-8c0-17.671875 14.328126-32 32-32 17.675782 0 32 14.328125 32 32v56c0 17.671875-14.324218 32-32 32zm0 0" fill="#d6d6d4"/><path d="m288.039062 96c0 8.835938-7.164062 16-16 16-8.835937 0-16-7.164062-16-16s7.164063-16 16-16c8.835938 0 16 7.164062 16 16zm0 0"/><path d="m208.039062 96c0 8.835938-7.164062 16-16 16-8.835937 0-16-7.164062-16-16s7.164063-16 16-16c8.835938 0 16 7.164062 16 16zm0 0"/><path d="m128.039062 96c0 8.835938-7.164062 16-16 16-8.835937 0-16-7.164062-16-16s7.164063-16 16-16c8.835938 0 16 7.164062 16 16zm0 0"/><path d="m400.039062 328c17.675782 0 32-14.328125 32-32v-56c0-17.671875-14.324218-32-32-32-17.671874 0-32 14.328125-32 32v8h16v-8c0-8.835938 7.164063-16 16-16 8.835938 0 16 7.164062 16 16v56c0 8.835938-7.164062 16-16 16-8.835937 0-16-7.164062-16-16v-24c0-4.417969-3.582031-8-8-8h-24v-192c-.042968-39.746094-32.253906-71.9570312-72-72h-176c-39.746093.0429688-71.953124 32.253906-72 72v160.800781c-18.640624 3.785157-32.039062 20.175781-32.039062 39.199219s13.398438 35.414062 32.039062 39.199219v96.800781c.046876 39.746094 32.253907 71.957031 72 72h176c39.746094-.042969 71.957032-32.253906 72-72v-128h16v16c0 17.671875 14.328126 32 32 32zm-352-16h16v16c.027344 22.082031 17.921876 39.972656 40 40h176c22.082032-.027344 39.972657-17.917969 40-40v-16.800781c.570313-.121094 1.089844-.359375 1.648438-.503907 1.628906-.394531 3.234375-.894531 4.800781-1.488281.800781-.3125 1.550781-.648437 2.320313-1.007812 1.457031-.679688 2.875-1.449219 4.238281-2.304688.671875-.414062 1.351563-.796875 1.992187-1.269531.328126-.226562.6875-.394531 1-.632812v24c-.039062 30.910156-25.085937 55.960937-56 56h-176c-30.910156-.039063-55.960937-25.089844-56-56zm240-40c-.019531-11.675781 8.382813-21.664062 19.886719-23.644531 11.507813-1.976563 22.761719 4.632812 26.640625 15.644531h-22.527344v16h22.527344c-3.878906 11.011719-15.132812 17.621094-26.640625 15.644531-11.503906-1.980469-19.90625-11.96875-19.886719-23.644531zm-24-96v56h-24v-94.3125c-.023437-30.820312 9.101563-60.957031 26.21875-86.589844 1.355469-1.832031 3.5-2.914062 5.78125-2.914062s4.425782 1.082031 5.785157 2.914062c14.773437 22.136719 23.621093 47.691406 25.703125 74.222656-11.625 12.058594-29.101563 16.441407-45.039063 11.296876l-4.894531 15.199218c5.988281 1.933594 12.246094 2.917969 18.542969 2.917969 11.296875-.003906 22.359375-3.210937 31.902343-9.253906v86.519531h-24v-56zm-64 56v-56h-16v56h-24v-94.3125c-.023437-30.820312 9.101563-60.957031 26.21875-86.589844 1.355469-1.832031 3.5-2.914062 5.78125-2.914062s4.425782 1.082031 5.785157 2.914062c14.773437 22.136719 23.621093 47.691406 25.703125 74.222656-11.625 12.058594-29.101563 16.441407-45.039063 11.296876l-4.894531 15.199218c5.988281 1.933594 12.246094 2.917969 18.542969 2.917969 11.296875-.003906 22.359375-3.210937 31.902343-9.253906v86.519531zm-80 0v-56h-16v56h-24v-94.3125c-.023437-30.820312 9.101563-60.957031 26.21875-86.589844 1.355469-1.832031 3.5-2.914062 5.78125-2.914062s4.425782 1.082031 5.785157 2.914062c14.773437 22.136719 23.621093 47.691406 25.703125 74.222656-11.625 12.058594-29.101563 16.441407-45.039063 11.296876l-4.894531 15.199218c5.988281 1.933594 12.246094 2.917969 18.542969 2.917969 11.296875-.003906 22.359375-3.210937 31.902343-9.253906v86.519531zm14.648438-184h34.703125c-7.304687 11.898438-13.132813 24.640625-17.351563 37.953125-4.21875-13.3125-10.042968-26.054687-17.351562-37.953125zm80 0h34.703125c-7.304687 11.898438-13.132813 24.640625-17.351563 37.953125-4.21875-13.3125-10.042968-26.054687-17.351562-37.953125zm89.351562 264v16c0 13.253906-10.742187 24-24 24h-176c-13.253906 0-24-10.746094-24-24v-16zm-200-296h176c30.914063.039062 55.960938 25.089844 56 56v168.207031c-4.710937-3.636719-10.175781-6.164062-16-7.398437v-160.808594c-.027343-22.082031-17.917968-39.972656-40-40h-176c-22.078124.027344-39.972656 17.917969-40 40v160h-16v-160c.039063-30.910156 25.089844-55.960938 56-56zm-88 256c0-13.253906 10.746094-24 24-24h240.210938c-10.941406 14.128906-10.941406 33.871094 0 48h-240.210938c-13.253906 0-24-10.746094-24-24zm320 136c-.039062 30.910156-25.085937 55.960938-56 56h-176c-30.910156-.039062-55.960937-25.089844-56-56v-34.839844c13.640626 16.964844 34.234376 26.835938 56 26.839844h176c21.769532-.003906 42.363282-9.875 56-26.839844zm0 0"/></svg>